<?xml version="1.0" encoding="UTF-8"?>
<svg width="18px" height="18px" viewBox="0 0 18 18" version="1.1" xmlns="http://www.w3.org/2000/svg">
    <g stroke="none" stroke-width="1" fill="none" fill-rule="evenodd">
        <path d="M9,0 C4.02943725,0 0,3.13431175 0,7 C0,9.65331175 2.19543725,11.8913117 5.25,13.0313117 L4.5,15.75 C4.5,15.75 7.5,14.25 9,14.25 C13.9705627,14.25 18,11.1156882 18,7 C18,2.88431175 13.9705627,0 9,0 Z" fill="#FEE500"></path>
        <path d="M5.25,5.25 C5.25,4.83578644 5.58578644,4.5 6,4.5 C6.41421356,4.5 6.75,4.83578644 6.75,5.25 L6.75,8.25 C6.75,8.66421356 6.41421356,9 6,9 C5.58578644,9 5.25,8.66421356 5.25,8.25 L5.25,5.25 Z M11.25,5.25 C11.25,4.83578644 11.5857864,4.5 12,4.5 C12.4142136,4.5 12.75,4.83578644 12.75,5.25 L12.75,8.25 C12.75,8.66421356 12.4142136,9 12,9 C11.5857864,9 11.25,8.66421356 11.25,8.25 L11.25,5.25 Z" fill="#000000"></path>
    </g>
</svg> 